#!OML:ASF F:\VICON\USERDATA\INSTALL\rory7\rory7.ASF
:FULLY-SPECIFIED
:DEGREES
975
root 1.53252 29.217 -1.76817 -171.075 -26.1796 172.623
lowerback 20.6394 -3.58148 -2.2615
upperback 2.50094 -6.4515 -5.94502
thorax -9.27972 -3.38127 -3.35433
lowerneck -15.4431 -2.75565 -5.93876
upperneck 6.97405 -3.75579 10.1144
head 4.92422 -1.41514 3.80821
rclavicle -1.59028e-015 -4.77083e-015
rhumerus -34.6796 3.77926 -79.9193
rradius 111.408
rwrist -3.76425
rhand -53.4565 -369.648
rfingers 7.12502
rthumb -25.903 322.097
lclavicle -1.59028e-015 -4.77083e-015
lhumerus 16.4059 -36.486 54.4703
lradius 103.994
lwrist 30.078
lhand -30.9874 46.1691
lfingers 7.12502
lthumb -4.27099 76.106
rfemur -9.56486 16.0929 20.5833
rtibia 24.5861
rfoot -19.3651 -23.5231
rtoes 3.33047
lfemur -71.4737 29.3483 -36.9928
ltibia 103.759
lfoot -11.0042 -19.5798
ltoes -3.66044
976
root 1.55853 29.1906 -1.74995 -171.396 -26.218 172.553
lowerback 20.8081 -3.53946 -2.00261
upperback 2.52491 -6.36469 -6.03961
thorax -9.37953 -3.35464 -3.62094
lowerneck -15.5946 -2.63034 -5.70754
upperneck 7.14005 -3.61779 9.93555
head 4.98055 -1.34435 3.72642
rclavicle 1.74931e-014 1.90833e-014
rhumerus -34.7926 3.77698 -80.0809
rradius 111.76
rwrist -3.57108
rhand -53.5331 -370.21
rfingers 7.12502
rthumb -25.9763 321.546
lclavicle 1.74931e-014 1.90833e-014
lhumerus 16.8172 -36.3824 54.0399
lradius 103.455
lwrist 30.5641
lhand -30.9139 45.5013
lfingers 7.12502
lthumb -4.20004 75.4396
rfemur -9.42224 16.1832 20.6428
rtibia 24.9725
rfoot -19.6408 -23.5217
rtoes 3.33073
lfemur -71.4487 29.5945 -36.9013
ltibia 104.071
lfoot -10.8848 -19.6107
ltoes -4.98273
977
root 1.58407 29.1732 -1.73271 -171.676 -26.1964 172.444
lowerback 21.0184 -3.4554 -1.74888
upperback 2.52776 -6.22905 -6.14856
thorax -9.52237 -3.30537 -3.91398
lowerneck -15.5019 -2.50852 -5.50667
upperneck 7.04829 -3.48096 9.83157
head 4.92026 -1.28274 3.67254
rclavicle 5.1684e-015 -3.18055e-014
rhumerus -34.8735 3.6702 -80.2066
rradius 112.068
rwrist -3.30592
rhand -53.5329 -371.042
rfingers 7.12502
rthumb -25.9761 320.713
lclavicle 5.1684e-015 -3.18055e-014
lhumerus 17.3 -36.2948 53.6804
lradius 102.86
lwrist 31.116
lhand -30.7592 44.9998
lfingers 7.12502
lthumb -4.05056 74.941
rfemur -9.28923 16.2616 20.6478
rtibia 25.2874
rfoot -19.787 -23.5161
rtoes 3.2442
lfemur -71.4087 29.8698 -36.8573
ltibia 104.323
lfoot -10.7904 -19.6628
ltoes -6.18041
978
root 1.60946 29.1511 -1.71102 -172.006 -26.2148 172.824
lowerback 21.1024 -3.40958 -1.04696
upperback 2.49417 -5.99812 -6.14147
thorax -9.65763 -3.21723 -4.37181
lowerneck -15.326 -2.43237 -5.29585
upperneck 6.86624 -3.40864 9.7564
head 4.82458 -1.2552 3.61982
rclavicle -2.90226e-014 -3.97569e-014
rhumerus -34.9564 3.42955 -80.2999
rradius 112.392
rwrist -3.07
rhand -53.3052 -371.453
rfingers 7.12502
rthumb -25.7581 320.271
lclavicle -2.90226e-014 -3.97569e-014
lhumerus 17.8366 -36.2673 53.3775
lradius 102.298
lwrist 31.6384
lhand -30.6594 44.919
lfingers 7.12502
lthumb -3.95422 74.862
rfemur -9.33829 16.385 21.0932
rtibia 25.502
rfoot -19.8895 -23.5758
rtoes 3.25869
lfemur -71.7287 30.1982 -36.4743
ltibia 104.64
lfoot -10.4319 -19.8609
ltoes -6.55549
979
root 1.62986 29.1373 -1.6888 -172.26 -26.2651 172.93
lowerback 21.2083 -3.38849 -0.543918
upperback 2.4658 -5.86238 -6.19953
thorax -9.79132 -3.17339 -4.7612
lowerneck -15.3103 -2.36395 -5.0916
upperneck 6.94951 -3.36035 9.70709
head 4.83985 -1.22821 3.57529
rclavicle -4.96962e-014 -9.70069e-014
rhumerus -35.0552 3.31911 -80.4409
rradius 112.656
rwrist -2.77085
rhand -53.1952 -372.166
rfingers 7.12502
rthumb -25.6527 319.542
lclavicle -4.96962e-014 -9.70069e-014
lhumerus 18.3366 -36.2064 53.0831
lradius 101.708
lwrist 32.1328
lhand -30.3292 45.0688
lfingers 7.12502
lthumb -3.63536 75.0176
rfemur -9.28504 16.2642 21.26
rtibia 25.6873
rfoot -20.0599 -23.4002
rtoes 3.58182
lfemur -71.8047 30.3699 -36.2882
ltibia 104.849
lfoot -10.1623 -19.9212
ltoes -6.89397
980
root 1.64834 29.1276 -1.67049 -172.525 -26.3257 173.104
lowerback 21.2577 -3.38717 -0.0298076
upperback 2.47254 -5.72987 -6.17365
thorax -9.84378 -3.12729 -5.06721
lowerneck -15.4327 -2.28455 -5.09567
upperneck 7.0109 -3.25699 9.73192
head 4.87143 -1.17199 3.59334
rclavicle -9.34288e-014 -1.19271e-013
rhumerus -34.9855 3.28404 -80.4401
rradius 112.792
rwrist -2.53199
rhand -53.2417 -372.753
rfingers 7.12502
rthumb -25.6973 318.962
lclavicle -9.34288e-014 -1.19271e-013
lhumerus 18.7644 -36.0516 52.9689
lradius 100.955
lwrist 32.3438
lhand -30.0642 44.2306
lfingers 7.12502
lthumb -3.3795 74.1835
rfemur -9.2577 16.0297 21.5031
rtibia 25.8844
rfoot -20.1522 -23.2303
rtoes 3.83438
lfemur -71.831 30.5531 -36.0001
ltibia 105.023
lfoot -9.88561 -20.0633
ltoes -6.72145
981
root 1.67037 29.1197 -1.65312 -172.74 -26.2459 173.176
lowerback 21.3727 -3.35022 0.208157
upperback 2.38196 -5.60229 -6.0584
thorax -10.0038 -3.06682 -5.11028
lowerneck -15.2658 -2.15327 -5.29808
upperneck 6.8695 -3.03052 9.7393
head 4.78574 -1.07107 3.64903
rclavicle -6.87795e-014 6.67916e-014
rhumerus -34.9751 3.59792 -80.3485
rradius 112.879
rwrist -2.26228
rhand -53.3818 -373.219
rfingers 7.12502
rthumb -25.8314 318.515
lclavicle -6.87795e-014 6.67916e-014
lhumerus 18.6049 -35.6783 53.4549
lradius 100.262
lwrist 32.6019
lhand -29.4647 43.0383
lfingers 7.12502
lthumb -2.80048 72.9996
rfemur -9.27603 16.0031 21.6225
rtibia 26.0942
rfoot -20.2689 -23.0964
rtoes 4.17175
lfemur -71.8816 30.8793 -35.8432
ltibia 105.136
lfoot -9.46731 -20.2417
ltoes -6.33799
982
root 1.69217 29.112 -1.63336 -172.851 -26.1539 173.264
lowerback 21.3991 -3.3123 0.443256
upperback 2.28244 -5.47545 -5.97522
thorax -10.1286 -3.0087 -5.19139
lowerneck -15.3654 -2.01206 -5.26625
upperneck 7.03034 -2.8351 9.61302
head 4.83324 -0.974498 3.6223
rclavicle -6.20208e-014 1.43125e-014
rhumerus -34.961 3.8444 -80.3058
rradius 112.995
rwrist -2.04839
rhand -53.4125 -373.145
rfingers 7.12502
rthumb -25.8609 318.593
lclavicle -6.20208e-014 1.43125e-014
lhumerus 18.2637 -35.3526 53.9529
lradius 99.6577
lwrist 32.5343
lhand -29.0718 42.2609
lfingers 7.12502
lthumb -2.42105 72.2269
rfemur -9.44544 16.0013 21.7291
rtibia 26.3198
rfoot -20.2713 -23.0517
rtoes 4.10666
lfemur -72.102 31.1309 -35.7592
ltibia 105.246
lfoot -9.21904 -20.3518
ltoes -6.71847
983
root 1.71095 29.1093 -1.6104 -172.951 -26.0585 173.325
lowerback 21.3944 -3.24685 0.768682
upperback 2.26915 -5.30761 -5.97594
thorax -10.1516 -2.94193 -5.43353
lowerneck -15.7256 -1.90827 -5.13022
upperneck 7.35889 -2.71639 9.48241
head 4.98023 -0.904665 3.57153
rclavicle -4.09496e-014 -4.85035e-014
rhumerus -34.8924 3.81578 -80.3079
rradius 113.161
rwrist -1.82203
rhand -53.2931 -372.757
rfingers 7.12502
rthumb -25.7465 318.965
lclavicle -4.09496e-014 -4.85035e-014
lhumerus 18.3331 -35.1074 54.1715
lradius 99.0697
lwrist 32.4007
lhand -28.6848 41.619
lfingers 7.12502
lthumb -2.04729 71.5889
rfemur -9.63029 15.8409 21.7743
rtibia 26.5475
rfoot -20.0952 -22.8571
rtoes 3.67044
lfemur -72.2402 31.2924 -35.6829
ltibia 105.296
lfoot -9.08966 -20.4047
ltoes -6.95407
984
root 1.73042 29.1101 -1.58643 -173.103 -25.9648 173.298
lowerback 21.5524 -3.19119 0.916293
upperback 2.23107 -5.18629 -5.89246
thorax -10.2708 -2.88583 -5.45811
lowerneck -15.724 -1.80212 -5.27353
upperneck 7.31822 -2.53302 9.45302
head 4.95422 -0.81993 3.60236
rclavicle -2.06736e-014 9.54166e-015
rhumerus -34.8373 3.91009 -80.1769
rradius 113.306
rwrist -1.60282
rhand -53.055 -372.748
rfingers 7.12502
rthumb -25.5185 318.941
lclavicle -2.06736e-014 9.54166e-015
lhumerus 18.2535 -34.7594 54.611
lradius 98.5228
lwrist 32.279
lhand -28.227 41.181
lfingers 7.12502
lthumb -1.60519 71.1547
rfemur -9.70201 15.7589 21.7411
rtibia 26.7791
rfoot -19.9999 -22.6149
rtoes 3.76949
lfemur -72.1545 31.4523 -35.5879
ltibia 105.295
lfoot -8.75616 -20.5248
ltoes -6.44714
985
root 1.74735 29.1149 -1.56383 -173.205 -25.9402 173.273
lowerback 21.6355 -3.1898 1.10434
upperback 2.1728 -5.12539 -5.82829
thorax -10.3841 -2.8605 -5.51176
lowerneck -15.511 -1.6949 -5.23939
upperneck 7.13626 -2.36896 9.30222
head 4.84743 -0.754758 3.56187
rclavicle 2.34566e-014 -4.37326e-014
rhumerus -34.8615 4.05081 -80.1741
rradius 113.51
rwrist -1.49798
rhand -52.6219 -373.145
rfingers 7.12502
rthumb -25.1035 318.485
lclavicle 2.34566e-014 -4.37326e-014
lhumerus 18.0518 -34.3463 55.0711
lradius 97.984
lwrist 32.1233
lhand -27.7754 40.8799
lfingers 7.12502
lthumb -1.16898 70.8565
rfemur -9.81664 15.9557 21.7119
rtibia 27.0433
rfoot -19.9288 -22.5835
rtoes 3.70056
lfemur -72.1126 31.5256 -35.536
ltibia 105.247
lfoot -8.60902 -20.5734
ltoes -6.68016
986
root 1.76418 29.1142 -1.54237 -173.215 -25.9621 173.165
lowerback 21.6422 -3.15444 1.26938
upperback 2.11197 -5.02643 -5.7859
thorax -10.4542 -2.8172 -5.59146
lowerneck -15.4374 -1.62405 -5.19036
upperneck 7.09969 -2.24969 9.07103
head 4.8106 -0.708958 3.49069
rclavicle 5.1684e-015 -2.8625e-014
rhumerus -34.9723 4.10712 -80.1795
rradius 113.752
rwrist -1.47429
rhand -52.3824 -372.902
rfingers 7.12502
rthumb -24.874 318.696
lclavicle 5.1684e-015 -2.8625e-014
lhumerus 18.0422 -34.1129 55.5272
lradius 97.4135
lwrist 32.1485
lhand -27.5195 40.682
lfingers 7.12502
lthumb -0.921865 70.6598
rfemur -9.98905 16.1235 21.6104
rtibia 27.3368
rfoot -19.7592 -22.6313
rtoes 3.23475
lfemur -72.1574 31.5064 -35.5947
ltibia 105.201
lfoot -8.51654 -20.5806
ltoes -7.64584
987
root 1.78183 29.1099 -1.51365 -173.205 -26.0455 172.958
lowerback 21.7594 -3.13183 1.34464
upperback 2.08001 -4.97128 -5.74212
thorax -10.5497 -2.79215 -5.59997
lowerneck -15.7088 -1.57172 -5.20091
upperneck 7.3487 -2.15969 8.92055
head 4.92268 -0.662093 3.45523
rclavicle -3.49861e-014 1.43125e-014
rhumerus -34.9842 4.1817 -80.0638
rradius 114.032
rwrist -1.60551
rhand -52.1806 -372.86
rfingers 7.12502
rthumb -24.6806 318.712
lclavicle -3.49861e-014 1.43125e-014
lhumerus 18.1528 -33.8225 55.9999
lradius 96.8469
lwrist 32.3319
lhand -27.3163 40.2746
lfingers 7.12502
lthumb -0.72558 70.2531
rfemur -10.1654 16.226 21.4085
rtibia 27.6655
rfoot -19.7518 -22.6404
rtoes 3.20736
lfemur -72.1462 31.3172 -35.7044
ltibia 105.139
lfoot -8.58693 -20.6392
ltoes -9.04192
988
root 1.8013 29.1051 -1.48271 -173.224 -26.1705 172.815
lowerback 21.836 -3.13029 1.48091
upperback 2.11064 -4.93053 -5.7062
thorax -10.5595 -2.777 -5.64948
lowerneck -15.8543 -1.5351 -5.02053
upperneck 7.38187 -2.10821 8.64262
head 4.94675 -0.644287 3.34244
rclavicle 2.44505e-014 7.95139e-016
rhumerus -34.7364 4.21708 -79.9995
rradius 114.08
rwrist -1.6118
rhand -52.0941 -372.941
rfingers 7.12502
rthumb -24.5977 318.619
lclavicle 2.44505e-014 7.95139e-016
lhumerus 18.292 -33.5064 56.3247
lradius 96.3773
lwrist 32.5232
lhand -26.8779 39.821
lfingers 7.12502
lthumb -0.302199 69.8005
rfemur -10.3613 16.4078 21.2483
rtibia 28.0163
rfoot -19.8378 -22.5925
rtoes 3.77489
lfemur -72.1571 31.0722 -35.7108
ltibia 105.098
lfoot -8.75891 -20.77
ltoes -10.8226
989
root 1.81636 29.1086 -1.45817 -173.083 -26.2565 172.536
lowerback 21.734 -3.10415 1.51003
upperback 2.13219 -4.88302 -5.69017
thorax -10.4742 -2.75368 -5.66666
lowerneck -15.9921 -1.49349 -4.89782
upperneck 7.3847 -2.03184 8.33742
head 4.95868 -0.6181 3.2326
rclavicle -2.80286e-014 3.97569e-014
rhumerus -34.3544 4.33698 -79.9213
rradius 114.033
rwrist -1.57097
rhand -52.0503 -373.289
rfingers 7.12502
rthumb -24.5557 318.266
lclavicle -2.80286e-014 3.97569e-014
lhumerus 18.2848 -33.1889 56.7283
lradius 96.0108
lwrist 32.7166
lhand -26.6366 39.4116
lfingers 7.12502
lthumb -0.0690925 69.3913
rfemur -10.6399 16.5483 20.921
rtibia 28.3458
rfoot -19.8291 -22.5999
rtoes 3.74431
lfemur -72.1513 30.8086 -35.8667
ltibia 104.992
lfoot -8.86159 -21.0821
ltoes -11.7257
